<?xml version="1.0" standalone="no"?>
<!DOCTYPE svg PUBLIC "-//W3C//DTD SVG 20010904//EN"
 "http://www.w3.org/TR/2001/REC-SVG-20010904/DTD/svg10.dtd">
<svg version="1.0" xmlns="http://www.w3.org/2000/svg"
 width="357.000000pt" height="293.000000pt" viewBox="0 0 357.000000 293.000000"
 preserveAspectRatio="xMidYMid meet">

<g transform="translate(0.000000,293.000000) scale(0.100000,-0.100000)"
fill="#000000" stroke="none">
<path d="M320 2902 c-150 -39 -256 -145 -296 -297 -11 -40 -14 -250 -14 -1067
0 -979 1 -1019 19 -1079 41 -129 141 -230 269 -269 62 -19 95 -20 834 -20
l770 0 29 29 c45 46 32 123 -26 149 -19 9 -214 12 -768 12 -492 0 -755 4 -780
11 -68 19 -132 91 -152 172 l-7 27 852 0 852 0 29 29 c31 31 38 75 18 113 -26
48 -21 48 -914 48 l-836 0 3 903 c3 902 3 902 25 942 27 50 57 79 108 102 38
17 114 18 1340 21 898 2 1316 -1 1352 -8 66 -14 126 -58 155 -112 21 -40 23
-60 28 -256 l5 -214 28 -24 c41 -35 90 -32 129 6 l30 30 -4 228 -3 227 -32 67
c-60 126 -170 213 -302 238 -34 6 -526 10 -1365 9 -1200 0 -1316 -2 -1376 -17z"/>
<path d="M1265 2327 c-38 -18 -60 -43 -80 -90 -13 -31 -15 -109 -15 -539 0
-487 1 -503 21 -544 32 -68 104 -102 178 -85 39 8 816 450 881 500 90 70 91
207 3 269 -16 10 -214 126 -442 257 -371 214 -418 239 -465 242 -29 2 -64 -2
-81 -10z m498 -427 c185 -107 333 -198 329 -202 -9 -8 -701 -408 -719 -415
-11 -4 -13 75 -13 421 l0 426 33 -17 c19 -10 185 -106 370 -213z"/>
<path d="M2700 2108 c-50 -26 -50 -27 -50 -585 l0 -523 -52 0 c-283 -1 -508
-222 -508 -500 0 -274 219 -490 495 -490 234 0 421 146 480 375 12 49 15 137
15 501 l0 443 177 -60 c207 -69 240 -72 277 -28 l26 31 0 258 c0 254 0 259
-22 285 -17 19 -113 58 -385 160 -200 74 -378 137 -395 140 -19 3 -44 0 -58
-7z m393 -317 c133 -49 250 -93 260 -96 15 -6 17 -22 17 -131 0 -68 -3 -124
-7 -124 -4 0 -89 27 -191 61 -194 64 -223 67 -258 27 -18 -19 -19 -52 -24
-557 l-5 -536 -33 -68 c-111 -226 -432 -220 -543 11 -35 72 -33 179 4 254 70
143 223 205 385 155 40 -12 59 -13 82 -5 60 21 60 16 60 583 0 283 3 515 6
515 3 0 115 -40 247 -89z"/>
</g>
</svg>
