<?xml version="1.0" standalone="no"?>
<!DOCTYPE svg PUBLIC "-//W3C//DTD SVG 20010904//EN"
 "http://www.w3.org/TR/2001/REC-SVG-20010904/DTD/svg10.dtd">
<svg version="1.0" xmlns="http://www.w3.org/2000/svg"
 width="387.000000pt" height="388.000000pt" viewBox="0 0 387.000000 388.000000"
 preserveAspectRatio="xMidYMid meet">

<g transform="translate(0.000000,388.000000) scale(0.100000,-0.100000)"
fill="#000000" stroke="none">
<path d="M186 3871 c-3 -4 -19 -11 -35 -14 -44 -9 -101 -65 -128 -125 l-23
-53 0 -749 0 -749 24 -54 c13 -30 36 -66 52 -80 58 -54 90 -57 591 -57 517 0
532 2 592 67 64 70 61 26 59 885 -3 715 -4 786 -20 814 -23 43 -84 94 -119
101 -16 3 -32 10 -35 14 -3 5 -218 9 -479 9 -261 0 -476 -4 -479 -9z m808
-200 c10 -11 16 -28 14 -39 -2 -11 -91 -118 -198 -237 -259 -288 -283 -328
-281 -465 3 -142 28 -184 281 -465 107 -119 196 -226 198 -236 8 -49 6 -49
-407 -49 -288 0 -390 3 -399 12 -9 9 -12 186 -12 737 0 660 1 726 17 743 15
17 41 18 393 18 359 0 378 -1 394 -19z m128 -308 c17 -15 18 -42 18 -428 l0
-412 -24 -22 c-16 -15 -31 -21 -43 -17 -23 7 -311 324 -335 369 -24 42 -23
124 0 159 10 15 87 104 171 198 158 176 175 188 213 153z"/>
<path d="M2190 3870 c-8 -4 -73 -34 -145 -65 -71 -31 -139 -63 -150 -69 -11
-7 -36 -18 -55 -24 -50 -17 -89 -57 -117 -121 -31 -71 -28 -133 11 -214 27
-53 34 -60 100 -91 177 -84 256 -119 315 -142 l63 -24 734 0 733 0 54 24 c117
51 137 103 137 353 0 215 -10 258 -72 315 -23 21 -53 41 -68 44 -14 3 -33 9
-42 15 -22 12 -1477 11 -1498 -1z m1472 -197 c16 -14 18 -34 18 -178 0 -112
-4 -165 -12 -173 -16 -16 -1433 -18 -1443 -2 -3 6 -13 10 -21 10 -7 0 -49 16
-91 36 -43 20 -102 47 -130 60 -37 17 -54 31 -59 48 -14 57 -17 55 246 180
l75 36 699 0 c637 0 701 -1 718 -17z"/>
<path d="M1959 2721 c-66 -21 -139 -69 -173 -114 -13 -17 -37 -59 -53 -92
l-28 -60 -3 -1059 c-3 -1168 -6 -1106 60 -1216 40 -67 143 -147 200 -156 21
-4 41 -11 44 -15 8 -13 871 -12 879 1 3 6 15 10 27 10 11 0 46 14 79 31 45 24
137 110 416 388 418 417 421 420 449 526 20 75 20 1432 0 1498 -8 26 -12 47
-10 47 6 0 -14 37 -34 63 -9 12 -41 45 -71 74 -95 92 -42 87 -941 90 -733 2
-789 1 -841 -16z m1609 -185 c31 -16 84 -71 101 -102 7 -15 11 -227 11 -689 0
-610 -1 -670 -16 -687 -16 -17 -37 -18 -263 -18 -274 0 -318 -7 -401 -60 -63
-40 -90 -73 -132 -157 l-33 -67 -3 -266 c-3 -225 -6 -267 -19 -282 -15 -17
-45 -18 -377 -18 -234 0 -375 4 -401 11 -52 15 -119 82 -134 134 -15 54 -15
2023 -1 2077 13 44 52 93 95 119 29 18 67 19 788 19 634 0 762 -2 785 -14z
m-116 -1693 c10 -9 18 -25 18 -37 0 -28 -367 -396 -395 -396 -48 1 -55 19 -55
146 0 139 10 182 52 230 55 62 87 72 247 73 93 1 118 -2 133 -16z"/>
<path d="M2315 2169 c-59 -29 -58 -141 2 -168 34 -15 912 -15 946 0 64 29 59
137 -8 167 -33 15 -909 16 -940 1z"/>
<path d="M2314 1598 c-59 -28 -57 -140 3 -167 33 -15 623 -15 656 0 14 6 30
22 36 36 23 51 6 113 -36 132 -32 15 -629 14 -659 -1z"/>
<path d="M145 1590 c-56 -22 -85 -50 -117 -112 l-23 -43 -3 -615 c-2 -607 -2
-615 19 -667 24 -60 85 -121 130 -130 16 -3 32 -10 35 -14 7 -12 951 -12 958
0 3 4 19 11 35 14 35 7 96 58 119 101 16 28 17 89 17 686 l0 655 -30 43 c-20
28 -50 52 -89 72 l-59 30 -471 0 c-441 -1 -474 -2 -521 -20z m977 -187 c17
-15 18 -47 18 -594 0 -533 -1 -580 -17 -599 -17 -19 -29 -20 -457 -20 -395 0
-441 2 -458 17 -17 15 -18 47 -18 596 0 526 2 582 17 599 15 17 43 18 456 18
396 0 442 -2 459 -17z"/>
<path d="M614 1028 c-12 -5 -27 -21 -33 -34 -15 -33 -15 -345 0 -377 25 -54
102 -63 148 -16 l31 31 0 168 c0 103 -4 179 -11 193 -19 42 -86 59 -135 35z"/>
</g>
</svg>
