<?xml version="1.0" standalone="no"?>
<!DOCTYPE svg PUBLIC "-//W3C//DTD SVG 20010904//EN"
 "http://www.w3.org/TR/2001/REC-SVG-20010904/DTD/svg10.dtd">
<svg version="1.0" xmlns="http://www.w3.org/2000/svg"
 width="378.000000pt" height="402.000000pt" viewBox="0 0 378.000000 402.000000"
 preserveAspectRatio="xMidYMid meet">

<g transform="translate(0.000000,402.000000) scale(0.100000,-0.100000)"
fill="#000000" stroke="none">
<path d="M1910 4010 c-158 -23 -285 -115 -354 -260 l-31 -65 -3 -360 -3 -360
-607 0 -607 0 -57 -23 c-63 -25 -154 -102 -189 -158 -33 -55 -49 -131 -49
-245 0 -120 9 -139 71 -139 65 0 73 14 80 141 3 63 11 126 16 140 18 41 62 88
107 112 41 22 46 22 596 25 384 2 571 0 607 -8 72 -16 129 -60 159 -123 l24
-52 0 -557 0 -558 -87 0 c-72 0 -97 -5 -138 -24 -64 -30 -121 -89 -143 -149
-15 -40 -34 -59 -134 -137 -65 -49 -119 -90 -123 -90 -3 0 -5 33 -5 73 0 118
23 111 -384 117 l-343 5 -48 30 c-36 22 -57 45 -77 84 l-28 53 0 328 c0 316
-1 328 -21 354 -26 33 -79 36 -110 5 -20 -20 -20 -28 -17 -377 l3 -357 32 -66
c39 -79 102 -140 181 -177 l57 -27 303 -3 302 -3 0 -108 c0 -94 3 -112 21
-135 15 -19 30 -26 55 -26 29 0 58 18 172 106 l137 106 5 -349 c5 -335 6 -350
27 -389 34 -63 66 -97 125 -129 l53 -30 213 -3 212 -4 0 -78 c0 -70 2 -81 22
-94 46 -33 76 -21 204 77 l120 94 77 6 c120 9 196 58 249 161 17 32 23 64 26
144 4 97 3 105 -19 128 -28 30 -81 32 -109 4 -17 -17 -20 -33 -20 -102 0 -136
-48 -188 -173 -188 -77 0 -87 -4 -174 -72 l-63 -50 0 46 c0 75 -5 76 -280 76
-217 0 -238 2 -268 20 -18 11 -41 34 -52 52 -19 32 -20 51 -20 443 0 394 1
411 20 443 12 19 38 41 63 52 39 18 69 20 432 20 386 0 391 0 435 -23 72 -37
80 -62 80 -263 0 -165 1 -171 23 -192 29 -28 67 -28 101 -1 l26 20 0 178 c0
128 -4 191 -15 228 -19 65 -85 139 -150 169 -49 23 -57 24 -337 24 l-288 0 0
131 0 131 28 -7 c15 -4 190 -9 390 -12 l362 -5 0 -148 0 -149 26 -20 c50 -39
65 -32 301 149 l222 170 83 0 c236 1 384 70 475 221 64 107 63 98 63 901 0
494 -4 744 -11 780 -22 106 -106 224 -201 284 -79 50 -153 67 -299 68 -121 1
-139 -1 -158 -18 -32 -29 -29 -88 5 -115 24 -19 40 -21 153 -21 114 0 131 -3
181 -26 68 -31 114 -74 148 -139 l27 -50 0 -755 0 -755 -23 -46 c-31 -64 -86
-117 -151 -148 -51 -24 -70 -26 -202 -29 l-146 -4 -169 -129 -169 -129 -3 107
c-4 166 38 151 -451 155 -354 3 -411 5 -443 20 l-37 17 -3 368 -3 368 -28 60
c-15 33 -51 83 -78 111 l-50 51 3 359 3 359 26 56 c33 70 87 124 153 155 l51
24 451 0 c441 0 452 0 478 21 34 27 37 86 5 115 -20 18 -43 19 -443 20 -231 1
-446 -2 -476 -6z"/>
<path d="M2701 3573 c-51 -27 -70 -59 -80 -140 -12 -98 -39 -149 -137 -261
l-83 -94 -202 1 c-177 2 -203 0 -220 -15 -18 -16 -19 -37 -19 -405 l0 -388 26
-20 c25 -19 40 -21 203 -21 134 0 182 3 196 14 16 11 25 10 64 -8 44 -20 64
-21 403 -24 398 -4 392 -4 445 65 l28 36 3 311 c2 171 0 326 -3 344 -8 45 -68
109 -113 122 -21 5 -98 10 -174 10 l-136 0 13 44 c22 72 27 147 15 221 -13 81
-54 170 -91 197 -37 28 -97 33 -138 11z m85 -248 c8 -59 0 -102 -42 -205 -39
-98 -41 -110 -15 -141 19 -24 23 -24 233 -29 l213 -5 3 -289 c2 -225 -1 -291
-10 -298 -19 -12 -549 -10 -607 3 -27 5 -70 23 -95 39 l-46 30 0 222 1 223
121 135 c143 159 193 232 209 306 7 30 16 54 20 54 4 0 11 -20 15 -45z m-516
-665 l0 -280 -85 0 -85 0 0 280 0 280 85 0 85 0 0 -280z"/>
<path d="M801 2493 c-16 -14 -25 -42 -39 -128 l-18 -110 -126 -5 c-105 -4
-129 -8 -147 -24 -29 -26 -28 -76 2 -104 21 -20 34 -22 136 -22 102 0 112 -2
108 -17 -3 -10 -8 -35 -12 -55 l-6 -38 -103 0 c-94 0 -104 -2 -124 -23 -31
-33 -29 -80 4 -106 22 -18 41 -21 112 -21 l85 0 -7 -42 c-3 -24 -9 -73 -12
-109 -6 -59 -4 -69 15 -88 26 -26 71 -27 100 -3 17 13 25 40 39 127 l17 110
54 3 54 3 -7 -43 c-3 -24 -9 -75 -13 -114 -5 -67 -4 -72 18 -88 33 -23 72 -20
97 7 16 17 26 51 39 130 l18 107 123 0 c117 0 124 1 147 25 32 31 33 74 2 103
-21 20 -34 22 -136 22 l-112 0 6 38 c13 76 6 72 116 72 93 0 102 2 124 25 14
13 25 36 25 50 0 14 -11 37 -25 50 -22 23 -32 25 -113 25 l-89 0 13 73 c26
143 12 187 -59 187 -45 0 -65 -24 -77 -96 -6 -32 -15 -83 -21 -111 l-10 -53
-51 0 -51 0 7 48 c4 26 10 77 13 113 5 61 4 67 -18 83 -30 21 -71 21 -98 -1z
m168 -435 c-4 -24 -8 -49 -9 -55 0 -9 -18 -13 -56 -13 -48 0 -55 2 -51 18 3 9
8 34 12 55 l6 37 53 0 53 0 -8 -42z"/>
<path d="M1725 1131 c-22 -10 -55 -34 -72 -54 -31 -35 -63 -118 -63 -162 0
-46 32 -140 63 -182 51 -72 241 -203 294 -203 31 0 183 96 242 153 74 72 101
132 101 226 0 90 -23 146 -78 189 -69 54 -166 68 -232 35 -33 -17 -37 -17 -70
-1 -46 23 -133 23 -185 -1z m152 -166 c25 -28 39 -35 68 -35 29 0 43 7 68 35
35 40 63 44 100 15 36 -29 43 -70 19 -122 -23 -50 -55 -82 -133 -131 l-56 -36
-54 36 c-73 49 -107 81 -130 125 -23 45 -24 70 -4 108 27 52 78 55 122 5z"/>
</g>
</svg>
