<?xml version="1.0" standalone="no"?>
<!DOCTYPE svg PUBLIC "-//W3C//DTD SVG 20010904//EN"
 "http://www.w3.org/TR/2001/REC-SVG-20010904/DTD/svg10.dtd">
<svg version="1.0" xmlns="http://www.w3.org/2000/svg"
 width="384.000000pt" height="379.000000pt" viewBox="0 0 384.000000 379.000000"
 preserveAspectRatio="xMidYMid meet">

<g transform="translate(0.000000,379.000000) scale(0.100000,-0.100000)"
fill="#000000" stroke="none">
<path d="M2275 3757 c-154 -74 -1324 -721 -1342 -743 -32 -36 -31 -102 2 -142
15 -18 138 -91 315 -187 160 -87 298 -167 305 -179 12 -17 15 -71 15 -289 0
-289 4 -312 53 -334 47 -22 684 -193 718 -193 19 0 187 41 374 92 279 76 345
97 370 119 l30 27 5 293 5 293 85 48 c47 26 88 47 93 48 4 0 7 -41 7 -90 0
-102 13 -139 55 -158 36 -17 96 -15 123 4 41 28 47 53 52 219 l5 160 92 50
c115 62 134 81 140 136 8 83 27 71 -710 472 -372 202 -691 370 -709 373 -22 3
-49 -3 -83 -19z m610 -524 c522 -285 526 -287 503 -305 -13 -10 -36 -20 -53
-23 -17 -3 -220 27 -470 70 -242 41 -463 78 -491 81 -87 11 -144 -34 -144
-112 0 -51 34 -98 83 -113 18 -5 175 -33 350 -62 174 -29 317 -56 317 -60 0
-4 -24 -19 -52 -34 -29 -15 -171 -93 -316 -172 -167 -91 -270 -142 -280 -138
-30 11 -1027 558 -1040 570 -11 10 87 67 510 298 288 158 531 286 541 287 9 0
253 -129 542 -287z m-828 -988 c198 -108 256 -135 287 -135 32 0 88 27 287
135 136 74 250 135 253 135 9 0 7 -283 -3 -298 -8 -13 -498 -152 -537 -152
-23 0 -486 124 -521 140 -22 9 -23 14 -23 160 0 82 2 150 4 150 2 0 116 -61
253 -135z"/>
<path d="M383 2933 c-12 -2 -34 -18 -48 -34 -24 -29 -25 -36 -27 -182 -2 -84
-3 -523 -3 -977 l0 -825 -147 -379 c-106 -270 -148 -391 -148 -421 0 -58 37
-92 116 -106 42 -8 580 -9 1856 -3 l1798 9 27 28 c51 50 44 78 -120 501 l-147
379 0 599 c0 495 -2 605 -14 633 -30 71 -134 86 -187 27 -26 -29 -27 -32 -34
-242 -4 -117 -4 -362 0 -545 5 -244 4 -338 -4 -354 l-12 -21 -1372 2 -1372 3
-3 829 c-1 602 1 833 9 842 8 10 23 12 50 8 21 -4 68 -3 104 1 52 5 73 13 96
33 38 34 49 94 26 139 -29 54 -65 63 -254 62 -92 -1 -178 -4 -190 -6z m2957
-2159 c12 -12 200 -500 200 -520 0 -12 -89 -14 -595 -14 l-596 0 -19 44 c-33
77 -32 77 -419 74 l-339 -3 -26 -24 c-14 -13 -30 -39 -36 -57 l-12 -34 -593 0
c-345 0 -596 4 -599 9 -4 5 23 83 57 173 35 89 81 207 101 260 24 63 43 98 54
100 46 9 2813 1 2822 -8z"/>
<path d="M1874 1370 c-36 -14 -64 -59 -64 -102 0 -77 42 -118 118 -118 44 0
76 20 97 60 51 99 -47 202 -151 160z"/>
</g>
</svg>
