<?xml version="1.0" standalone="no"?>
<!DOCTYPE svg PUBLIC "-//W3C//DTD SVG 20010904//EN"
 "http://www.w3.org/TR/2001/REC-SVG-20010904/DTD/svg10.dtd">
<svg version="1.0" xmlns="http://www.w3.org/2000/svg"
 width="377.000000pt" height="377.000000pt" viewBox="0 0 377.000000 377.000000"
 preserveAspectRatio="xMidYMid meet">

<g transform="translate(0.000000,377.000000) scale(0.100000,-0.100000)"
fill="#000000" stroke="none">
<path d="M590 3755 c-230 -50 -414 -196 -515 -407 -70 -146 -70 -145 -70 -898
0 -530 3 -688 13 -735 65 -288 278 -506 561 -572 71 -17 160 -18 1306 -18
1126 0 1237 1 1307 17 268 60 479 261 555 528 17 60 18 116 18 780 l0 715 -23
75 c-77 246 -247 418 -497 502 l-70 23 -1260 2 c-1051 1 -1271 -1 -1325 -12z
m2633 -312 c91 -43 177 -130 220 -220 l32 -68 3 -689 c2 -620 1 -694 -14 -740
-23 -71 -56 -125 -110 -180 -59 -60 -119 -95 -203 -118 -62 -17 -133 -18
-1266 -18 -1286 0 -1239 -2 -1350 51 -64 30 -164 130 -194 194 -51 108 -51
107 -51 790 0 544 2 650 15 700 39 147 146 264 289 316 48 17 116 18 1306 16
l1255 -2 68 -32z"/>
<path d="M2633 3165 c-29 -8 -72 -24 -95 -36 -63 -32 -151 -121 -182 -184
l-27 -55 -62 0 c-230 0 -453 -63 -624 -177 -112 -73 -252 -222 -314 -330 -22
-39 -49 -57 -49 -34 0 17 -133 120 -199 155 -119 62 -287 98 -375 82 -102 -19
-146 -156 -74 -234 30 -32 58 -42 152 -52 215 -25 374 -187 396 -406 9 -90 16
-108 52 -141 55 -51 142 -47 197 8 31 31 36 49 45 159 20 255 178 486 411 601
109 53 179 70 320 76 l120 5 30 -58 c61 -122 191 -214 325 -233 277 -38 518
187 497 464 -13 170 -121 317 -277 376 -72 27 -197 34 -267 14z m213 -319 c41
-41 44 -47 44 -98 0 -157 -178 -213 -273 -86 -28 38 -32 105 -9 148 29 54 75
80 140 80 51 0 57 -3 98 -44z"/>
<path d="M2041 864 c-30 -8 -76 -26 -103 -41 -61 -33 -147 -125 -176 -187
l-22 -46 -819 -2 c-810 -3 -820 -3 -847 -24 -48 -35 -67 -70 -67 -117 0 -56
27 -104 73 -128 33 -18 74 -19 845 -19 l810 0 30 -58 c116 -224 408 -304 621
-169 158 100 236 299 189 482 -60 231 -303 371 -534 309z m215 -318 c41 -41
44 -47 44 -98 0 -41 -6 -64 -23 -89 -102 -153 -341 -14 -258 150 29 56 72 81
140 81 50 0 57 -3 97 -44z"/>
<path d="M2995 578 c-121 -43 -135 -208 -22 -262 30 -14 79 -16 359 -16 288 0
327 2 357 18 101 51 106 190 10 247 -32 19 -54 20 -354 22 -207 1 -331 -2
-350 -9z"/>
</g>
</svg>
