<?xml version="1.0" standalone="no"?>
<!DOCTYPE svg PUBLIC "-//W3C//DTD SVG 20010904//EN"
 "http://www.w3.org/TR/2001/REC-SVG-20010904/DTD/svg10.dtd">
<svg version="1.0" xmlns="http://www.w3.org/2000/svg"
 width="344.000000pt" height="388.000000pt" viewBox="0 0 344.000000 388.000000"
 preserveAspectRatio="xMidYMid meet">

<g transform="translate(0.000000,388.000000) scale(0.100000,-0.100000)"
fill="#000000" stroke="none">
<path d="M2693 3851 c-103 -38 -121 -58 -278 -294 l-121 -182 -1024 -5 -1025
-5 -57 -28 c-65 -32 -121 -89 -152 -156 l-21 -46 0 -1050 0 -1050 23 -46 c33
-67 83 -121 143 -154 l54 -30 603 -3 c580 -2 602 -3 602 -21 0 -10 -14 -77
-30 -147 -17 -71 -33 -139 -35 -151 -5 -22 -10 -23 -104 -23 -55 0 -118 -6
-145 -14 -96 -29 -154 -100 -165 -206 l-6 -55 -124 -2 c-118 -1 -125 -3 -149
-27 -33 -33 -34 -87 -1 -122 l22 -24 1012 0 1012 0 27 21 c23 18 27 27 24 67
-5 71 -27 82 -173 85 l-120 2 -7 59 c-4 33 -19 77 -33 102 -49 83 -123 114
-276 114 -84 0 -98 2 -103 18 -4 14 -21 86 -71 300 l-5 22 593 0 c677 0 652
-3 738 81 28 27 62 74 77 106 l27 58 0 1045 0 1045 -21 46 c-47 100 -142 170
-251 185 l-51 6 15 42 c22 61 19 170 -7 238 -27 74 -96 150 -166 184 -75 36
-177 43 -251 15z m160 -175 c46 -19 94 -77 102 -125 9 -55 -16 -107 -101 -211
-37 -47 -144 -179 -237 -295 -93 -115 -172 -211 -176 -213 -5 -2 -136 90 -190
134 -2 2 50 86 116 186 66 101 160 244 208 318 97 151 127 186 170 206 39 17
68 17 108 0z m-704 -523 c-13 -21 -62 -96 -109 -168 -47 -71 -100 -153 -117
-181 -46 -75 -85 -101 -179 -119 -154 -29 -258 -105 -323 -234 -49 -96 -65
-171 -64 -301 0 -120 31 -318 58 -371 27 -52 93 -54 151 -5 79 67 91 70 289
71 161 1 186 4 237 24 75 29 151 99 191 175 31 60 32 64 33 197 l0 136 45 56
c24 31 170 214 324 407 l280 349 90 1 c105 0 148 -17 177 -71 17 -32 18 -76
18 -756 l0 -723 -1530 0 -1530 0 0 728 c0 692 1 728 19 758 41 67 -14 64 1024
64 l939 0 -23 -37z m89 -405 c42 -34 76 -67 76 -73 -1 -7 -29 -46 -63 -88
l-63 -75 -78 56 c-44 31 -79 60 -80 65 0 12 112 177 122 177 4 0 43 -28 86
-62z m-245 -319 c65 -50 125 -102 134 -116 24 -36 21 -137 -5 -188 -45 -89
-87 -104 -292 -105 -105 0 -175 -5 -214 -15 -32 -8 -61 -13 -66 -10 -4 3 -11
47 -15 98 -17 224 69 378 232 416 89 21 100 17 226 -80z m1257 -1176 c0 -174
-8 -207 -63 -247 l-28 -21 -1437 0 c-1409 0 -1438 0 -1469 20 -55 33 -63 63
-63 244 l0 161 1530 0 1530 0 0 -157z m-1409 -603 c54 -213 69 -190 -125 -190
l-164 0 13 53 c7 28 25 105 40 170 l27 118 87 -3 86 -3 36 -145z m437 -386
c15 -11 22 -25 22 -50 l0 -34 -580 0 -580 0 0 32 c0 17 7 40 17 50 15 17 46
18 557 18 474 0 544 -2 564 -16z"/>
</g>
</svg>
